<mxfile host="app.diagrams.net" modified="2023-12-15T06:55:21.272Z" agent="Mozilla/5.0 (Windows NT 10.0; Win64; x64) AppleWebKit/537.36 (KHTML, like Gecko) Chrome/120.0.0.0 Safari/537.36" version="22.1.9" etag="uqdK1xVHEILr03rLlByy" type="github">
  <diagram name="第 1 页" id="QIFtOIYt0jGxybx9Yb-Y">
    <mxGraphModel>
      <root>
        <mxCell id="0" />
        <mxCell id="1" parent="0" />
      </root>
    </mxGraphModel>
  </diagram>
</mxfile>
